<svg width="25" height="25" viewBox="0 0 25 25" fill="none" xmlns="http://www.w3.org/2000/svg">
<path d="M17.1979 21.0933V19.0933C17.1979 18.0324 16.7764 17.015 16.0263 16.2648C15.2762 15.5147 14.2587 15.0933 13.1979 15.0933H5.19788C4.13701 15.0933 3.11959 15.5147 2.36945 16.2648C1.6193 17.015 1.19788 18.0324 1.19788 19.0933V21.0933" stroke="black" stroke-width="2" stroke-linecap="round" stroke-linejoin="round"/>
<path d="M9.19788 11.0933C11.407 11.0933 13.1979 9.3024 13.1979 7.09326C13.1979 4.88412 11.407 3.09326 9.19788 3.09326C6.98874 3.09326 5.19788 4.88412 5.19788 7.09326C5.19788 9.3024 6.98874 11.0933 9.19788 11.0933Z" stroke="black" stroke-width="2" stroke-linecap="round" stroke-linejoin="round"/>
<path d="M23.1979 21.0931V19.0931C23.1972 18.2069 22.9022 17.3459 22.3592 16.6455C21.8163 15.945 21.056 15.4447 20.1979 15.2231" stroke="black" stroke-width="2" stroke-linecap="round" stroke-linejoin="round"/>
<path d="M16.1979 3.22314C17.0583 3.44345 17.8209 3.94385 18.3655 4.64545C18.9101 5.34706 19.2057 6.20997 19.2057 7.09814C19.2057 7.98631 18.9101 8.84922 18.3655 9.55083C17.8209 10.2524 17.0583 10.7528 16.1979 10.9731" stroke="black" stroke-width="2" stroke-linecap="round" stroke-linejoin="round"/>
</svg>
