<svg width="24" height="18" viewBox="0 0 24 18" fill="none" xmlns="http://www.w3.org/2000/svg">
<path d="M12.311 3.94666V5.22024V6.85085L13.7789 6.85085C13.7791 6.85085 13.7792 6.85085 13.7794 6.85085H13.7795V7.35085C14.9111 7.34954 16.0297 7.62907 17.0586 8.17031C17.7854 8.55264 18.4554 9.05919 19.0465 9.67093L12.311 3.94666ZM12.311 3.94666L11.4446 4.88007L8.41701 8.14159L8.10119 8.48181L8.41707 8.82198L11.4446 12.0824L12.311 13.0154V11.7421V10.1127M12.311 3.94666V10.1127M12.311 10.1127H15.7757L16.1076 10.1203L12.311 10.1127ZM13.7795 5.58905C18.5972 5.58905 22.6543 9.85224 23.0844 15.4178C22.4344 14.4824 21.6476 13.6723 20.7523 13.0265C19.3532 12.0175 17.7399 11.4468 16.076 11.3805L16.076 11.3804L16.0653 11.3802L15.7572 11.3745L15.7572 11.3745H15.748H13.7795H13.2795V11.8745V15.69L6.58775 8.48175L13.2795 1.27349V5.08905V5.58905H13.7795ZM2.50756 8.14159L2.19177 8.48179L2.5076 8.82196L7.37309 14.0624L7.37361 15.6896L0.682244 8.48175L7.37401 1.27349V2.89898L2.50756 8.14159Z" fill="black" stroke="black"/>
</svg>
